<svg width="70" height="70" viewBox="0 0 70 70" fill="none" xmlns="http://www.w3.org/2000/svg">
<rect width="70" height="70" rx="20" fill="#8676FF"/>
<path d="M25.8747 39.3643L30.4107 34.8283L34.1814 38.6003L38.3907 34.391L36 32.0003H42.6667V38.667L40.276 36.2763L34.1814 42.371L30.4107 38.6003L27.1107 41.899C28.6086 44.1535 30.9075 45.7542 33.5417 46.3768C36.1758 46.9994 38.9481 46.5973 41.2969 45.2519C43.6456 43.9066 45.395 41.7187 46.1906 39.1315C46.9862 36.5444 46.7686 33.7515 45.5817 31.3189C44.3948 28.8863 42.3275 26.9958 39.7988 26.0307C37.27 25.0655 34.4688 25.0978 31.9629 26.121C29.4571 27.1441 27.4339 29.0817 26.3034 31.5411C25.1729 34.0004 25.0197 36.7975 25.8747 39.3657V39.3643ZM23.824 41.4417L23.8107 41.4283L23.816 41.423C23.0559 39.7163 22.6643 37.8686 22.6667 36.0003C22.6667 28.6363 28.636 22.667 36 22.667C43.364 22.667 49.3334 28.6363 49.3334 36.0003C49.3334 43.3643 43.364 49.3337 36 49.3337C30.5734 49.3337 25.9067 46.0937 23.824 41.4417Z" fill="white"/>
</svg>
