<svg width="206" height="226" viewBox="0 0 206 226" fill="none" xmlns="http://www.w3.org/2000/svg">
<g filter="url(#filter0_dddddd_1567_19149)">
<rect x="80" width="46" height="46" rx="8" fill="white"/>
</g>
<path d="M103 33C97.477 33 93 28.523 93 23C93 17.477 97.477 13 103 13C108.523 13 113 17.477 113 23C113 28.523 108.523 33 103 33ZM103 31C105.122 31 107.157 30.1571 108.657 28.6569C110.157 27.1566 111 25.1217 111 23C111 20.8783 110.157 18.8434 108.657 17.3431C107.157 15.8429 105.122 15 103 15C100.878 15 98.8434 15.8429 97.3431 17.3431C95.8429 18.8434 95 20.8783 95 23C95 25.1217 95.8429 27.1566 97.3431 28.6569C98.8434 30.1571 100.878 31 103 31ZM103 18.05L107.95 23L103 27.95L98.05 23L103 18.05ZM103 20.879L100.879 23L103 25.121L105.121 23L103 20.879Z" fill="#023AFF"/>
<defs>
<filter id="filter0_dddddd_1567_19149" x="0" y="0" width="206" height="226" filterUnits="userSpaceOnUse" color-interpolation-filters="sRGB">
<feFlood flood-opacity="0" result="BackgroundImageFix"/>
<feColorMatrix in="SourceAlpha" type="matrix" values="0 0 0 0 0 0 0 0 0 0 0 0 0 0 0 0 0 0 127 0" result="hardAlpha"/>
<feOffset dy="2.76726"/>
<feGaussianBlur stdDeviation="1.1069"/>
<feColorMatrix type="matrix" values="0 0 0 0 0.423529 0 0 0 0 0.286275 0 0 0 0 0.67451 0 0 0 0.0196802 0"/>
<feBlend mode="normal" in2="BackgroundImageFix" result="effect1_dropShadow_1567_19149"/>
<feColorMatrix in="SourceAlpha" type="matrix" values="0 0 0 0 0 0 0 0 0 0 0 0 0 0 0 0 0 0 127 0" result="hardAlpha"/>
<feOffset dy="6.6501"/>
<feGaussianBlur stdDeviation="2.66004"/>
<feColorMatrix type="matrix" values="0 0 0 0 0.423529 0 0 0 0 0.286275 0 0 0 0 0.67451 0 0 0 0.0282725 0"/>
<feBlend mode="normal" in2="effect1_dropShadow_1567_19149" result="effect2_dropShadow_1567_19149"/>
<feColorMatrix in="SourceAlpha" type="matrix" values="0 0 0 0 0 0 0 0 0 0 0 0 0 0 0 0 0 0 127 0" result="hardAlpha"/>
<feOffset dy="12.5216"/>
<feGaussianBlur stdDeviation="5.00862"/>
<feColorMatrix type="matrix" values="0 0 0 0 0.423529 0 0 0 0 0.286275 0 0 0 0 0.67451 0 0 0 0.035 0"/>
<feBlend mode="normal" in2="effect2_dropShadow_1567_19149" result="effect3_dropShadow_1567_19149"/>
<feColorMatrix in="SourceAlpha" type="matrix" values="0 0 0 0 0 0 0 0 0 0 0 0 0 0 0 0 0 0 127 0" result="hardAlpha"/>
<feOffset dy="22.3363"/>
<feGaussianBlur stdDeviation="8.93452"/>
<feColorMatrix type="matrix" values="0 0 0 0 0.423529 0 0 0 0 0.286275 0 0 0 0 0.67451 0 0 0 0.0417275 0"/>
<feBlend mode="normal" in2="effect3_dropShadow_1567_19149" result="effect4_dropShadow_1567_19149"/>
<feColorMatrix in="SourceAlpha" type="matrix" values="0 0 0 0 0 0 0 0 0 0 0 0 0 0 0 0 0 0 127 0" result="hardAlpha"/>
<feOffset dy="41.7776"/>
<feGaussianBlur stdDeviation="16.711"/>
<feColorMatrix type="matrix" values="0 0 0 0 0.423529 0 0 0 0 0.286275 0 0 0 0 0.67451 0 0 0 0.0503198 0"/>
<feBlend mode="normal" in2="effect4_dropShadow_1567_19149" result="effect5_dropShadow_1567_19149"/>
<feColorMatrix in="SourceAlpha" type="matrix" values="0 0 0 0 0 0 0 0 0 0 0 0 0 0 0 0 0 0 127 0" result="hardAlpha"/>
<feOffset dy="100"/>
<feGaussianBlur stdDeviation="40"/>
<feColorMatrix type="matrix" values="0 0 0 0 0.423529 0 0 0 0 0.286275 0 0 0 0 0.67451 0 0 0 0.07 0"/>
<feBlend mode="normal" in2="effect5_dropShadow_1567_19149" result="effect6_dropShadow_1567_19149"/>
<feBlend mode="normal" in="SourceGraphic" in2="effect6_dropShadow_1567_19149" result="shape"/>
</filter>
</defs>
</svg>
