<svg width="24" height="24" viewBox="0 0 24 24" fill="none" xmlns="http://www.w3.org/2000/svg">
<path d="M16.5233 15.4628L19.7355 18.6743L18.6743 19.7355L15.4628 16.5233C14.2678 17.4812 12.7815 18.0022 11.25 18C7.524 18 4.5 14.976 4.5 11.25C4.5 7.524 7.524 4.5 11.25 4.5C14.976 4.5 18 7.524 18 11.25C18.0022 12.7815 17.4812 14.2678 16.5233 15.4628ZM15.0188 14.9063C15.9706 13.9274 16.5022 12.6153 16.5 11.25C16.5 8.349 14.1503 6 11.25 6C8.349 6 6 8.349 6 11.25C6 14.1503 8.349 16.5 11.25 16.5C12.6153 16.5022 13.9274 15.9706 14.9063 15.0188L15.0188 14.9063Z" fill="#A1A3D4"/>
</svg>
