<svg width="40" height="40" viewBox="0 0 40 40" fill="none" xmlns="http://www.w3.org/2000/svg">
<rect width="40" height="40" rx="12" fill="#F8A243"/>
<g clip-path="url(#clip0_1568_5794)">
<path d="M11 27V13.7C10.9999 13.4947 11.0631 13.2944 11.1808 13.1263C11.2985 12.9581 11.4651 12.8302 11.658 12.76L21.329 9.24402C21.4045 9.21652 21.4856 9.20765 21.5653 9.21815C21.645 9.22865 21.721 9.25822 21.7869 9.30434C21.8527 9.35046 21.9065 9.41178 21.9436 9.4831C21.9807 9.55441 22 9.63363 22 9.71402V14.667L28.316 16.772C28.5152 16.8384 28.6885 16.9657 28.8112 17.1361C28.934 17.3064 29.0001 17.5111 29 17.721V27H31V29H9V27H11ZM13 27H20V11.855L13 14.401V27ZM27 27V18.442L22 16.775V27H27Z" fill="white"/>
</g>
<defs>
<clipPath id="clip0_1568_5794">
<rect width="24" height="24" fill="white" transform="translate(8 8)"/>
</clipPath>
</defs>
</svg>
