<svg width="40" height="40" viewBox="0 0 40 40" fill="none" xmlns="http://www.w3.org/2000/svg">
<rect width="40" height="40" rx="12" fill="#7BDDA2"/>
<g clip-path="url(#clip0_1567_16020)">
<path d="M29 29H11C10.7348 29 10.4804 28.8946 10.2929 28.7071C10.1054 28.5196 10 28.2652 10 28V20.487C9.99998 20.3441 10.0306 20.2029 10.0898 20.0728C10.1489 19.9428 10.2353 19.8269 10.343 19.733L14 16.544V12C14 11.7348 14.1054 11.4804 14.2929 11.2929C14.4804 11.1054 14.7348 11 15 11H29C29.2652 11 29.5196 11.1054 29.7071 11.2929C29.8946 11.4804 30 11.7348 30 12V28C30 28.2652 29.8946 28.5196 29.7071 28.7071C29.5196 28.8946 29.2652 29 29 29ZM17 27H20V20.942L16 17.454L12 20.942V27H15V23H17V27ZM22 27H28V13H16V15.127C16.234 15.127 16.469 15.209 16.657 15.374L21.657 19.733C21.7647 19.8269 21.8511 19.9428 21.9102 20.0728C21.9694 20.2029 22 20.3441 22 20.487V27ZM24 19H26V21H24V19ZM24 23H26V25H24V23ZM24 15H26V17H24V15ZM20 15H22V17H20V15Z" fill="white"/>
</g>
<defs>
<clipPath id="clip0_1567_16020">
<rect width="24" height="24" fill="white" transform="translate(8 8)"/>
</clipPath>
</defs>
</svg>
