<svg width="40" height="40" viewBox="0 0 40 40" fill="none" xmlns="http://www.w3.org/2000/svg">
<rect width="40" height="40" rx="12" fill="#E8A5FF"/>
<g clip-path="url(#clip0_1567_16061)">
<path d="M26.9011 18C27.2962 18.6856 27.9461 19.1872 28.7094 19.3957C29.4727 19.6042 30.2874 19.5026 30.9761 19.113C31.0571 19.8366 30.9104 20.5675 30.5564 21.2039C30.2023 21.8402 29.6587 22.3502 29.0011 22.663L29.0001 29H22.0001V27C22.0003 26.4954 21.8097 26.0094 21.4666 25.6395C21.1235 25.2695 20.6533 25.0428 20.1501 25.005L20.0001 25C19.4955 24.9998 19.0095 25.1904 18.6396 25.5335C18.2696 25.8766 18.0429 26.3468 18.0051 26.85L18.0001 27V29H11.0001V22.664C10.3413 22.3517 9.79638 21.8414 9.44159 21.2044C9.0868 20.5675 8.93979 19.8356 9.0211 19.111C9.70974 19.5014 10.5248 19.6036 11.2885 19.3955C12.0522 19.1874 12.7027 18.6858 13.0981 18H26.9011ZM25.9301 20H14.0691L13.9931 20.079C13.5621 20.499 13.0581 20.839 12.5071 21.081L12.4111 21.12L13.0001 21.4L12.9991 27L16.0011 26.999V26.927L16.0111 26.704C16.1601 24.688 17.7911 23.105 19.8651 23.006L20.0731 23.001L20.2961 23.011C21.2682 23.0831 22.1806 23.5077 22.8617 24.2051C23.5428 24.9024 23.9459 25.8245 23.9951 26.798L23.9991 26.999L27.0001 27L27.0011 21.4L27.5881 21.12L27.4931 21.08C26.9416 20.8385 26.4382 20.4994 26.0071 20.079L25.9301 20ZM25.0361 11C25.1076 11.4961 25.2849 11.971 25.5559 12.3927C25.8268 12.8144 26.1852 13.1729 26.6068 13.4441C27.0283 13.7153 27.5032 13.8927 27.9992 13.9645C28.4953 14.0362 29.001 14.0006 29.4821 13.86C29.3965 14.6886 29.0182 15.4594 28.4151 16.0341C27.8121 16.6087 27.0238 16.9494 26.1921 16.995L26.0001 17H14.0001C13.1341 17.0001 12.2988 16.6792 11.6556 16.0992C11.0125 15.5193 10.6072 14.7214 10.5181 13.86C10.9992 14.0006 11.5049 14.0362 12.001 13.9645C12.497 13.8927 12.9719 13.7153 13.3934 13.4441C13.815 13.1729 14.1734 12.8144 14.4444 12.3927C14.7153 11.971 14.8926 11.4961 14.9641 11H25.0361ZM23.6001 13H16.3991C16.0388 13.7054 15.5306 14.3249 14.9091 14.816L14.6611 15H25.3381L25.3261 14.992C24.6829 14.5373 24.1445 13.9501 23.7471 13.27L23.6001 13Z" fill="white"/>
</g>
<defs>
<clipPath id="clip0_1567_16061">
<rect width="24" height="24" fill="white" transform="translate(8 8)"/>
</clipPath>
</defs>
</svg>
