<svg width="24" height="24" viewBox="0 0 24 24" fill="none" xmlns="http://www.w3.org/2000/svg">
<path d="M6.17 18.0025C6.3766 17.4169 6.75974 16.9099 7.2666 16.5512C7.77346 16.1926 8.37909 16 9 16C9.62091 16 10.2265 16.1926 10.7334 16.5512C11.2403 16.9099 11.6234 17.4169 11.83 18.0025H22V20.0025H11.83C11.6234 20.588 11.2403 21.095 10.7334 21.4537C10.2265 21.8123 9.62091 22.0049 9 22.0049C8.37909 22.0049 7.77346 21.8123 7.2666 21.4537C6.75974 21.095 6.3766 20.588 6.17 20.0025H2V18.0025H6.17ZM12.17 11.0025C12.3766 10.4169 12.7597 9.90988 13.2666 9.55124C13.7735 9.1926 14.3791 9 15 9C15.6209 9 16.2265 9.1926 16.7334 9.55124C17.2403 9.90988 17.6234 10.4169 17.83 11.0025H22V13.0025H17.83C17.6234 13.588 17.2403 14.095 16.7334 14.4537C16.2265 14.8123 15.6209 15.0049 15 15.0049C14.3791 15.0049 13.7735 14.8123 13.2666 14.4537C12.7597 14.095 12.3766 13.588 12.17 13.0025H2V11.0025H12.17ZM6.17 4.00245C6.3766 3.41692 6.75974 2.90988 7.2666 2.55124C7.77346 2.1926 8.37909 2 9 2C9.62091 2 10.2265 2.1926 10.7334 2.55124C11.2403 2.90988 11.6234 3.41692 11.83 4.00245H22V6.00245H11.83C11.6234 6.58798 11.2403 7.09502 10.7334 7.45366C10.2265 7.8123 9.62091 8.0049 9 8.0049C8.37909 8.0049 7.77346 7.8123 7.2666 7.45366C6.75974 7.09502 6.3766 6.58798 6.17 6.00245H2V4.00245H6.17ZM9 6.00245C9.26522 6.00245 9.51957 5.89709 9.70711 5.70956C9.89464 5.52202 10 5.26767 10 5.00245C10 4.73723 9.89464 4.48288 9.70711 4.29534C9.51957 4.10781 9.26522 4.00245 9 4.00245C8.73478 4.00245 8.48043 4.10781 8.29289 4.29534C8.10536 4.48288 8 4.73723 8 5.00245C8 5.26767 8.10536 5.52202 8.29289 5.70956C8.48043 5.89709 8.73478 6.00245 9 6.00245ZM15 13.0025C15.2652 13.0025 15.5196 12.8971 15.7071 12.7096C15.8946 12.522 16 12.2677 16 12.0025C16 11.7372 15.8946 11.4829 15.7071 11.2953C15.5196 11.1078 15.2652 11.0025 15 11.0025C14.7348 11.0025 14.4804 11.1078 14.2929 11.2953C14.1054 11.4829 14 11.7372 14 12.0025C14 12.2677 14.1054 12.522 14.2929 12.7096C14.4804 12.8971 14.7348 13.0025 15 13.0025ZM9 20.0025C9.26522 20.0025 9.51957 19.8971 9.70711 19.7096C9.89464 19.522 10 19.2677 10 19.0025C10 18.7372 9.89464 18.4829 9.70711 18.2953C9.51957 18.1078 9.26522 18.0025 9 18.0025C8.73478 18.0025 8.48043 18.1078 8.29289 18.2953C8.10536 18.4829 8 18.7372 8 19.0025C8 19.2677 8.10536 19.522 8.29289 19.7096C8.48043 19.8971 8.73478 20.0025 9 20.0025Z" fill="#A1A3D4"/>
</svg>
